<svg height="512" viewBox="0 0 60 60" width="512" xmlns="http://www.w3.org/2000/svg"><g id="Page-1" fill="none" fill-rule="evenodd"><g id="001---Ball" fill-rule="nonzero"><g id="Icons" transform="translate(1 1)"><circle id="Oval" cx="29" cy="29" fill="#ff9801" r="29"/><path id="Shape" d="m29 0c-.5033333 0-1.0033333.01266667-1.5.038 15.4192225.79012792 27.5158989 13.5225465 27.5158989 28.962s-12.0966764 28.1718721-27.5158989 28.962c.4973333.0253333.9973333.038 1.5.038 16.0162576-.0000002 28.9999996-12.9837424 28.9999996-29s-12.983742-28.99999976-28.9999996-29z" fill="#f57c00"/></g><g id="Icons_copy"><path id="Shape" d="m54 24c-.4447224-.0001295-.8359225-.293937-.96-.721-1.1370291-3.8689802-3.2276598-7.3903863-6.08-10.241-.2599566-.2510745-.3642126-.6228779-.2726972-.9725073.0915155-.3496295.3645604-.6226744.7141899-.7141899.3496294-.0915154.7214328.0127406.9725073.2726972 3.0908409 3.0896198 5.3555513 6.9065475 6.586 11.1.1547141.5298953-.14921 1.0849259-.679 1.24-.0915258.025064-.1861117.0371818-.281.036z" fill="#f5f5f5"/><circle id="Oval" cx="45" cy="10" fill="#f5f5f5" r="1"/><path id="Shape" d="m30 0c-16.5685425 0-30 13.4314575-30 30s13.4314575 30 30 30 30-13.4314575 30-30c-.018737-16.5607751-13.4392249-29.98126296-30-30zm27.956 28.467c-5.406-2.667-12.521-4.618-20.751-5.659-1.927-.242-3.881-.41-5.843-.544 1.211-6.648 5.7-12.619 12.494-16.58 8.2609841 4.710262 13.5697828 13.2883017 14.1 22.783zm-16.183-23.867c-6.8 4.315-11.253 10.613-12.417 17.543-2.3-.114-4.6-.162-6.893-.132.936-9.16 3.289-16.692 6.25-19.982.427-.016.855-.029 1.287-.029 4.0671948-.0042141 8.0858624.88328576 11.773 2.6zm-26.849 17.782c-.2338299-4.5567729-1.5978035-8.983759-3.969-12.882 4.1658267-3.88345005 9.4198845-6.39968903 15.057-7.211-2.7 4.111-4.713 11.205-5.56 19.782-1.86.059-3.706.158-5.528.311zm-5.415-11.436c2.0479875 3.5488484 3.2210375 7.5345445 3.422 11.627-3.47371595.35629-6.92337904.9172651-10.331 1.68 1.04791903-4.9821801 3.43690257-9.5834544 6.909-13.307zm-7.267 15.43c3.5442757-.8271531 7.13750852-1.4283633 10.758-1.8v.064c0 8.175-3.181 15.489-7.833 18.272-2.084009-3.9846716-3.17072429-8.4152582-3.167-12.912.00252528-1.2119515.08336035-2.4224734.242-3.624zm3.911 18.278c5.332-3.154 8.847-10.999 8.847-20.014 0-.087-.008-.173-.009-.261 1.746-.149 3.515-.246 5.3-.306-.182 2.288-.291 4.657-.291 7.097 0 10.307 1.7 20.11 4.547 26.23l.034.069c-7.657326-1.5235118-14.3344148-6.1668205-18.428-12.815zm20.869 13.186c-.209-.369-.426-.789-.665-1.292-2.728-5.861-4.357-15.348-4.357-25.378 0-2.45.109-4.833.294-7.152 2.2593333-.034 4.5233333.0043333 6.792.115-.051.646-.086 1.379-.086 1.867 0 10.761 7.882 20.525 19.769 24.759-5.1378145 4.6643183-11.8297654 7.2460443-18.769 7.241-.9947952-.0007208-1.9888542-.054129-2.978-.16zm23.338-8.649c-11.601-3.767-19.36-13.012-19.36-23.191 0-.488.037-1.175.084-1.751 1.971.132 3.934.3 5.871.543 8.366 1.059 15.788 3.163 21.027 5.932-.1732503 6.8856416-2.8882324 13.4636491-7.622 18.467z" fill="#000"/></g></g></g></svg>