<svg id="Layer_1" enable-background="new 0 0 512 512" height="512" viewBox="0 0 512 512" width="512" xmlns="http://www.w3.org/2000/svg"><g><path d="m504.5 121.222v282.68c0 6.94-5.63 12.57-12.57 12.57h-199.62c-4.37 15.8-18.85 27.4-36.04 27.4-4.78 0-9.36-.9-13.56-2.54-10.91-4.24-19.33-13.46-22.49-24.86h-200.15c-6.94 0-12.57-5.63-12.57-12.57v-282.68c0-6.94 5.63-12.57 12.57-12.57h471.86c6.94 0 12.57 5.63 12.57 12.57z" fill="#52deff"/><path d="m265.19 416.472h27.12c-4.37 15.8-18.85 27.4-36.04 27.4-4.78 0-9.36-.9-13.56-2.54 10.91-4.24 19.33-13.461 22.48-24.86z" fill="#55baff"/><path d="m504.5 121.222v282.68c0 6.94-5.63 12.57-12.57 12.57h-27.12c6.94 0 12.57-5.63 12.57-12.57v-282.68c0-6.94-5.63-12.57-12.57-12.57h27.12c6.94 0 12.57 5.63 12.57 12.57z" fill="#55baff"/><g><path d="m469.38 81.692v298.03l-63.67-9.54c-49.93-7.47-100.87-4.22-149.44 9.54-48.57-13.76-99.52-17.01-149.44-9.54l-63.68 9.54v-298.03l62.84-9.51c17.62-2.67 35.38-4 53.11-4 15.42-.01 30.81.99 46.1 2.99 16.49 2.15 32.84 5.46 48.95 9.93l2.12.59 2.11-.59c48.21-13.37 98.7-16.41 148.17-8.92z" fill="#eef6ff"/></g><path d="m469.38 81.692v298.03l-23.72-3.55-39.95-5.99c-49.93-7.47-100.87-4.22-149.44 9.54v-298.03l2.11-.59c48.21-13.37 98.7-16.41 148.17-8.92l39.11 5.92z" fill="#dae6ef"/><path d="m469.38 81.692v298.03l-23.72-3.55v-298.07z" fill="#c5d3dd"/><path d="m205.2 71.172v111.72l-22-20.87-24.1 16.7v-110.54c8.05-.01 16.08.26 24.1.81 7.35.5 14.69 1.22 22 2.18z" fill="#ff455c"/><path d="m205.2 71.172v111.72l-22-20.87v-93.03c7.35.5 14.69 1.22 22 2.18z" fill="#e51c5f"/></g><g><path d="m215.687 215.689c-30.448-8.446-61.728-10.332-92.97-5.601l-38.1 5.769c-4.095.62-6.912 4.443-6.292 8.538.563 3.715 3.76 6.378 7.405 6.378.374 0 .752-.028 1.133-.085l38.1-5.769c29.139-4.414 58.314-2.655 86.714 5.224 3.99 1.104 8.125-1.23 9.231-5.222 1.108-3.991-1.23-8.124-5.221-9.232z"/><path d="m85.73 277.578c.374 0 .752-.028 1.133-.085l38.1-5.769c23.807-3.604 47.854-3.063 71.475 1.608 4.063.803 8.009-1.839 8.813-5.902s-1.839-8.009-5.902-8.813c-25.323-5.009-51.105-5.589-76.631-1.725l-38.1 5.769c-4.095.62-6.912 4.443-6.292 8.538.562 3.716 3.759 6.379 7.404 6.379z"/><path d="m215.365 309.299c-30.448-8.447-61.727-10.33-92.969-5.601l-38.1 5.769c-4.095.62-6.912 4.443-6.292 8.538.563 3.715 3.76 6.378 7.405 6.378.374 0 .752-.028 1.133-.085l38.1-5.769c29.14-4.413 58.313-2.655 86.713 5.224 3.989 1.105 8.124-1.231 9.232-5.222 1.107-3.991-1.231-8.124-5.222-9.232z"/><path d="m428.397 121.976-38.1-5.769c-31.241-4.73-62.52-2.846-92.969 5.601-3.991 1.107-6.329 5.241-5.222 9.232 1.106 3.991 5.236 6.331 9.231 5.222 28.399-7.878 57.574-9.636 86.713-5.224l38.1 5.769c.381.058.759.085 1.133.085 3.646 0 6.844-2.664 7.405-6.378.622-4.095-2.196-7.918-6.291-8.538z"/><path d="m299.33 183.337c.663 0 1.338-.089 2.009-.275 28.399-7.878 57.574-9.636 86.713-5.225l11.033 1.67c4.093.619 7.919-2.197 8.538-6.293.62-4.095-2.197-7.918-6.292-8.538l-11.033-1.67c-31.241-4.73-62.52-2.846-92.969 5.602-3.991 1.107-6.329 5.241-5.222 9.232.921 3.32 3.937 5.497 7.223 5.497z"/><path d="m390.298 256.797c-31.241-4.729-62.52-2.847-92.969 5.601-3.991 1.107-6.329 5.241-5.223 9.232.922 3.321 3.938 5.497 7.224 5.497.663 0 1.338-.089 2.009-.275 28.399-7.878 57.574-9.637 86.713-5.224l11.033 1.67c4.093.616 7.919-2.197 8.538-6.293.62-4.095-2.197-7.918-6.292-8.538z"/><path d="m300.697 229.86c28.397-7.879 57.573-9.636 86.713-5.224l38.1 5.769c.381.058.759.085 1.133.085 3.646 0 6.844-2.664 7.405-6.378.62-4.095-2.197-7.918-6.292-8.538l-38.1-5.769c-31.242-4.73-62.521-2.847-92.969 5.601-3.991 1.107-6.329 5.241-5.222 9.232s5.236 6.331 9.232 5.222z"/><path d="m428.077 309.184-38.1-5.769c-31.241-4.73-62.521-2.847-92.97 5.601-3.991 1.107-6.329 5.241-5.222 9.232 1.106 3.991 5.235 6.331 9.231 5.222 28.399-7.879 57.576-9.636 86.714-5.224l38.1 5.769c.381.058.759.085 1.133.085 3.646 0 6.844-2.664 7.405-6.378.621-4.095-2.196-7.918-6.291-8.538z"/><path d="m491.929 101.152h-15.05v-19.46c0-3.708-2.711-6.86-6.377-7.416l-62.833-9.514c-50.842-7.698-101.743-4.632-151.29 9.115l-.112.031-.11-.031c-49.549-13.746-100.45-16.813-151.292-9.115l-62.832 9.514c-3.667.555-6.377 3.707-6.377 7.416v19.46h-15.585c-11.067 0-20.071 9.003-20.071 20.071v19.981c0 4.142 3.357 7.5 7.5 7.5s7.5-3.358 7.5-7.5v-19.981c0-2.796 2.275-5.071 5.071-5.071h15.584v263.568c0 2.183.951 4.258 2.605 5.683 1.653 1.424 3.845 2.057 6.005 1.735l63.674-9.534c49.198-7.368 98.415-4.228 146.284 9.333 1.336.378 2.752.378 4.088 0 47.865-13.56 97.083-16.7 146.283-9.333l63.674 9.534c.37.055.741.083 1.11.083 1.784 0 3.524-.637 4.895-1.817 1.654-1.425 2.605-3.5 2.605-5.683v-263.569h15.05c2.796 0 5.071 2.275 5.071 5.071v282.68c0 2.796-2.275 5.071-5.071 5.071h-111.263c-4.143 0-7.5 3.358-7.5 7.5s3.357 7.5 7.5 7.5h111.264c11.067 0 20.071-9.004 20.071-20.071v-282.68c0-11.068-9.004-20.071-20.071-20.071zm-325.325-25.445c10.392.217 20.76.905 31.094 2.063v87.673l-9.341-8.862c-2.577-2.444-6.516-2.747-9.435-.723l-12.318 8.539zm-6.885 283.016c-17.961 0-35.982 1.347-54 4.045l-55.063 8.245v-282.872l56.455-8.548c14.838-2.247 29.683-3.537 44.494-3.873v38.294c-9.875.173-19.781 1-29.529 2.476l-38.1 5.769c-4.095.62-6.912 4.443-6.292 8.538.563 3.715 3.76 6.378 7.405 6.378.374 0 .752-.028 1.133-.085l38.1-5.769c9.008-1.364 18.152-2.137 27.283-2.307v31.804c-9.875.172-19.781 1.001-29.529 2.477l-38.1 5.769c-4.095.62-6.912 4.443-6.292 8.538.563 3.715 3.76 6.378 7.405 6.378.374 0 .752-.028 1.133-.085l38.1-5.769c9.007-1.364 18.152-2.139 27.283-2.308v2.903c0 2.791 1.549 5.35 4.021 6.645 2.474 1.294 5.459 1.108 7.751-.48l19.08-13.226 17.579 16.678c1.422 1.349 3.278 2.059 5.164 2.059.998 0 2.005-.199 2.959-.609 2.754-1.184 4.539-3.893 4.539-6.891v-103.112c12.089 1.895 24.119 4.437 36.069 7.626v282.525c-29.328-7.47-59.103-11.213-89.048-11.213zm302.16 12.29-55.063-8.245c-48.057-7.195-96.128-4.782-143.048 7.169v-282.526c46.433-12.392 94.074-15.024 141.655-7.819l56.456 8.548z"/><path d="m345.799 408.974h-53.487c-3.371 0-6.328 2.25-7.229 5.499-3.569 12.893-15.419 21.898-28.816 21.898-13.396 0-25.246-9.005-28.815-21.898-.9-3.25-3.857-5.499-7.229-5.499h-200.152c-2.796 0-5.071-2.275-5.071-5.071v-228.007c0-4.142-3.357-7.5-7.5-7.5s-7.5 3.358-7.5 7.5v228.006c0 11.067 9.004 20.071 20.071 20.071h194.84c6.943 16.381 23.204 27.397 41.355 27.397s34.413-11.016 41.356-27.397h48.176c4.143 0 7.5-3.358 7.5-7.5s-3.357-7.499-7.499-7.499z"/></g></svg>